HIERARCHY
ROOT mixamorig:Hips
{
	OFFSET 0.000000 106.130402 -0.000000
	CHANNELS 6 Xposition Yposition Zposition Xrotation Yrotation Zrotation
	JOINT mixamorig:Spine
	{
		OFFSET -0.038117 9.490501 -1.392100
		CHANNELS 6 Xposition Yposition Zposition Xrotation Yrotation Zrotation
		JOINT mixamorig:Spine1
		{
			OFFSET -0.044226 11.072235 -1.624061
			CHANNELS 3 Xrotation Yrotation Zrotation
			JOINT mixamorig:Spine2
			{
				OFFSET -0.050544 12.653999 -1.856072
				CHANNELS 3 Xrotation Yrotation Zrotation
				JOINT mixamorig:Neck
				{
					OFFSET -0.056883 14.235809 -2.088087
					CHANNELS 6 Xposition Yposition Zposition Xrotation Yrotation Zrotation
					JOINT mixamorig:Head
					{
						OFFSET 0.000004 3.280197 0.313303
						CHANNELS 6 Xposition Yposition Zposition Xrotation Yrotation Zrotation
						JOINT mixamorig:HeadTop_End
						{
							OFFSET 0.000030 25.653503 2.450522
							CHANNELS 6 Xposition Yposition Zposition Xrotation Yrotation Zrotation
							End Site
							{
								OFFSET 0.000031 25.770279 0.000023
							}
						}
					}
				}
				JOINT mixamorig:LeftShoulder
				{
					OFFSET 6.728814 11.756592 -2.058488
					CHANNELS 6 Xposition Yposition Zposition Xrotation Yrotation Zrotation
					JOINT mixamorig:LeftArm
					{
						OFFSET 14.094160 -3.181030 0.059262
						CHANNELS 3 Xrotation Yrotation Zrotation
						JOINT mixamorig:LeftForeArm
						{
							OFFSET 23.160299 0.000000 0.000000
							CHANNELS 3 Xrotation Yrotation Zrotation
							JOINT mixamorig:LeftHand
							{
								OFFSET 24.071800 0.000000 0.000000
								CHANNELS 3 Xrotation Yrotation Zrotation
								JOINT mixamorig:LeftHandThumb1
								{
									OFFSET 4.173401 -1.926498 1.509006
									CHANNELS 6 Xposition Yposition Zposition Xrotation Yrotation Zrotation
									JOINT mixamorig:LeftHandThumb2
									{
										OFFSET 2.998001 -1.730896 1.730896
										CHANNELS 3 Xrotation Yrotation Zrotation
										JOINT mixamorig:LeftHandThumb3
										{
											OFFSET 3.648811 -2.106644 2.106645
											CHANNELS 3 Xrotation Yrotation Zrotation
											JOINT mixamorig:LeftHandThumb4
											{
												OFFSET 2.967018 -1.712997 1.713007
												CHANNELS 3 Xrotation Yrotation Zrotation
												End Site
												{
													OFFSET 2.967010 -1.713013 1.713006
												}
											}
										}
									}
								}
								JOINT mixamorig:LeftHandIndex1
								{
									OFFSET 14.669403 -0.398788 2.855501
									CHANNELS 6 Xposition Yposition Zposition Xrotation Yrotation Zrotation
									JOINT mixamorig:LeftHandIndex2
									{
										OFFSET 3.248596 0.000000 0.000000
										CHANNELS 3 Xrotation Yrotation Zrotation
										JOINT mixamorig:LeftHandIndex3
										{
											OFFSET 2.659599 0.000000 0.000000
											CHANNELS 3 Xrotation Yrotation Zrotation
											JOINT mixamorig:LeftHandIndex4
											{
												OFFSET 3.633202 0.000000 0.000000
												CHANNELS 3 Xrotation Yrotation Zrotation
												End Site
												{
													OFFSET 3.633194 0.000000 0.000000
												}
											}
										}
									}
								}
								JOINT mixamorig:LeftHandMiddle1
								{
									OFFSET 14.409798 0.000000 0.000000
									CHANNELS 6 Xposition Yposition Zposition Xrotation Yrotation Zrotation
									JOINT mixamorig:LeftHandMiddle2
									{
										OFFSET 3.259102 0.000000 0.000000
										CHANNELS 3 Xrotation Yrotation Zrotation
										JOINT mixamorig:LeftHandMiddle3
										{
											OFFSET 2.639900 0.000000 0.000000
											CHANNELS 3 Xrotation Yrotation Zrotation
											JOINT mixamorig:LeftHandMiddle4
											{
												OFFSET 3.673904 0.000000 0.000000
												CHANNELS 3 Xrotation Yrotation Zrotation
												End Site
												{
													OFFSET 3.673904 0.000000 0.000000
												}
											}
										}
									}
								}
								JOINT mixamorig:LeftHandRing1
								{
									OFFSET 13.191498 0.321991 -3.304901
									CHANNELS 6 Xposition Yposition Zposition Xrotation Yrotation Zrotation
									JOINT mixamorig:LeftHandRing2
									{
										OFFSET 2.717606 0.000000 0.000000
										CHANNELS 3 Xrotation Yrotation Zrotation
										JOINT mixamorig:LeftHandRing3
										{
											OFFSET 2.134499 0.000000 0.000000
											CHANNELS 3 Xrotation Yrotation Zrotation
											JOINT mixamorig:LeftHandRing4
											{
												OFFSET 2.786896 0.000000 0.000000
												CHANNELS 3 Xrotation Yrotation Zrotation
												End Site
												{
													OFFSET 2.786896 0.000000 0.000000
												}
											}
										}
									}
								}
								JOINT mixamorig:LeftHandPinky1
								{
									OFFSET 11.636398 -0.516617 -5.614198
									CHANNELS 6 Xposition Yposition Zposition Xrotation Yrotation Zrotation
									JOINT mixamorig:LeftHandPinky2
									{
										OFFSET 1.559402 0.000000 0.000000
										CHANNELS 3 Xrotation Yrotation Zrotation
										JOINT mixamorig:LeftHandPinky3
										{
											OFFSET 1.540604 0.000000 0.000000
											CHANNELS 3 Xrotation Yrotation Zrotation
											JOINT mixamorig:LeftHandPinky4
											{
												OFFSET 1.668694 0.000000 0.000000
												CHANNELS 3 Xrotation Yrotation Zrotation
												End Site
												{
													OFFSET 1.668701 0.000000 0.000000
												}
											}
										}
									}
								}
							}
						}
					}
				}
				JOINT mixamorig:RightShoulder
				{
					OFFSET -6.728786 11.756714 -2.058491
					CHANNELS 6 Xposition Yposition Zposition Xrotation Yrotation Zrotation
					JOINT mixamorig:RightArm
					{
						OFFSET -14.094133 -3.181152 0.059256
						CHANNELS 3 Xrotation Yrotation Zrotation
						JOINT mixamorig:RightForeArm
						{
							OFFSET -23.160299 0.000000 0.000000
							CHANNELS 3 Xrotation Yrotation Zrotation
							JOINT mixamorig:RightHand
							{
								OFFSET -24.071701 0.000000 0.000000
								CHANNELS 3 Xrotation Yrotation Zrotation
								JOINT mixamorig:RightHandThumb1
								{
									OFFSET -4.173401 -1.930939 1.503952
									CHANNELS 6 Xposition Yposition Zposition Xrotation Yrotation Zrotation
									JOINT mixamorig:RightHandThumb2
									{
										OFFSET -2.998001 -1.730896 1.730896
										CHANNELS 3 Xrotation Yrotation Zrotation
										JOINT mixamorig:RightHandThumb3
										{
											OFFSET -3.648582 -2.106506 2.106510
											CHANNELS 3 Xrotation Yrotation Zrotation
											JOINT mixamorig:RightHandThumb4
											{
												OFFSET -2.967010 -1.713013 1.713007
												CHANNELS 3 Xrotation Yrotation Zrotation
												End Site
												{
													OFFSET -2.967010 -1.713013 1.713006
												}
											}
										}
									}
								}
								JOINT mixamorig:RightHandIndex1
								{
									OFFSET -14.669403 -0.406464 2.854446
									CHANNELS 6 Xposition Yposition Zposition Xrotation Yrotation Zrotation
									JOINT mixamorig:RightHandIndex2
									{
										OFFSET -3.248596 0.000000 0.000000
										CHANNELS 3 Xrotation Yrotation Zrotation
										JOINT mixamorig:RightHandIndex3
										{
											OFFSET -2.659599 0.000000 0.000000
											CHANNELS 3 Xrotation Yrotation Zrotation
											JOINT mixamorig:RightHandIndex4
											{
												OFFSET -3.633102 0.000000 0.000000
												CHANNELS 3 Xrotation Yrotation Zrotation
												End Site
												{
													OFFSET -3.633102 0.000000 0.000000
												}
											}
										}
									}
								}
								JOINT mixamorig:RightHandMiddle1
								{
									OFFSET -14.409798 0.000000 0.000000
									CHANNELS 6 Xposition Yposition Zposition Xrotation Yrotation Zrotation
									JOINT mixamorig:RightHandMiddle2
									{
										OFFSET -3.259102 0.000000 0.000000
										CHANNELS 3 Xrotation Yrotation Zrotation
										JOINT mixamorig:RightHandMiddle3
										{
											OFFSET -2.639801 0.000000 0.000000
											CHANNELS 3 Xrotation Yrotation Zrotation
											JOINT mixamorig:RightHandMiddle4
											{
												OFFSET -3.673897 0.000000 0.000000
												CHANNELS 3 Xrotation Yrotation Zrotation
												End Site
												{
													OFFSET -3.673904 0.000000 0.000000
												}
											}
										}
									}
								}
								JOINT mixamorig:RightHandRing1
								{
									OFFSET -13.191498 0.330658 -3.304046
									CHANNELS 6 Xposition Yposition Zposition Xrotation Yrotation Zrotation
									JOINT mixamorig:RightHandRing2
									{
										OFFSET -2.717606 0.000000 0.000000
										CHANNELS 3 Xrotation Yrotation Zrotation
										JOINT mixamorig:RightHandRing3
										{
											OFFSET -2.134499 0.000000 0.000000
											CHANNELS 3 Xrotation Yrotation Zrotation
											JOINT mixamorig:RightHandRing4
											{
												OFFSET -2.786797 0.000000 0.000000
												CHANNELS 3 Xrotation Yrotation Zrotation
												End Site
												{
													OFFSET -2.786804 0.000000 0.000000
												}
											}
										}
									}
								}
								JOINT mixamorig:RightHandPinky1
								{
									OFFSET -11.636398 -0.501495 -5.923333
									CHANNELS 6 Xposition Yposition Zposition Xrotation Yrotation Zrotation
									JOINT mixamorig:RightHandPinky2
									{
										OFFSET -1.559303 0.000000 0.000000
										CHANNELS 3 Xrotation Yrotation Zrotation
										JOINT mixamorig:RightHandPinky3
										{
											OFFSET -1.540596 0.000000 0.000000
											CHANNELS 3 Xrotation Yrotation Zrotation
											JOINT mixamorig:RightHandPinky4
											{
												OFFSET -1.668701 0.000000 0.000000
												CHANNELS 3 Xrotation Yrotation Zrotation
												End Site
												{
													OFFSET -1.668701 0.000000 0.000000
												}
											}
										}
									}
								}
							}
						}
					}
				}
			}
		}
	}
	JOINT mixamorig:RightUpLeg
	{
		OFFSET -9.940990 -5.272415 -1.010900
		CHANNELS 6 Xposition Yposition Zposition Xrotation Yrotation Zrotation
		JOINT mixamorig:RightLeg
		{
			OFFSET 0.000000 -43.345264 1.301677
			CHANNELS 3 Xrotation Yrotation Zrotation
			JOINT mixamorig:RightFoot
			{
				OFFSET 0.000000 -44.296967 -4.172008
				CHANNELS 3 Xrotation Yrotation Zrotation
				JOINT mixamorig:RightToeBase
				{
					OFFSET -2.597178 -13.215245 14.785532
					CHANNELS 3 Xrotation Yrotation Zrotation
					JOINT mixamorig:RightToe_End
					{
						OFFSET -1.307599 0.027390 9.914103
						CHANNELS 3 Xrotation Yrotation Zrotation
						End Site
						{
							OFFSET -1.307599 0.027390 9.914103
						}
					}
				}
			}
		}
	}
	JOINT mixamorig:LeftUpLeg
	{
		OFFSET 9.618309 -5.272285 -1.010900
		CHANNELS 6 Xposition Yposition Zposition Xrotation Yrotation Zrotation
		JOINT mixamorig:LeftLeg
		{
			OFFSET 0.000000 -43.345459 1.301683
			CHANNELS 3 Xrotation Yrotation Zrotation
			JOINT mixamorig:LeftFoot
			{
				OFFSET 0.000000 -44.296967 -4.172008
				CHANNELS 3 Xrotation Yrotation Zrotation
				JOINT mixamorig:LeftToeBase
				{
					OFFSET 2.597218 -13.215261 14.785510
					CHANNELS 3 Xrotation Yrotation Zrotation
					JOINT mixamorig:LeftToe_End
					{
						OFFSET 1.307524 0.027409 9.914113
						CHANNELS 3 Xrotation Yrotation Zrotation
						End Site
						{
							OFFSET 1.307524 0.027409 9.914112
						}
					}
				}
			}
		}
	}
}
MOTION
Frames: 4
Frame Time: 0.033333
0.184232 105.019699 0.934846 -3.753086 -5.218933 -3.684400 -0.038116 9.490484 -1.392099 3.295792 1.534092 2.652752 1.146039 0.329157 1.552970 1.123711 0.356192 1.550933 -0.056884 14.235801 -2.088088 5.622648 -0.077171 0.463898 0.000003 3.280193 0.313306 -7.551134 1.374728 -0.084352 0.000031 25.653534 2.450522 -0.000000 -0.000000 -0.000000 6.728817 11.756597 -2.058486 1.046101 -17.446004 -12.316908 3.916069 -19.989261 -69.767527 -0.000001 -1.453904 -0.000003 -33.228242 -1.359317 -6.190912 4.173387 -1.926495 1.509008 -0.666111 2.158565 4.837382 11.859674 25.414873 17.056663 -13.811999 3.541926 9.030625 0.000002 -0.000003 0.000003 14.669396 -0.398777 2.855500 0.020438 -0.966552 -7.590918 0.267905 1.752973 -17.376546 0.057687 0.821037 -8.038807 0.000000 0.000001 0.000003 14.409797 0.000019 -0.000001 -0.077454 2.661813 -15.698696 0.268771 1.755786 -17.405223 0.300526 1.853958 -18.413084 0.000001 -0.000000 -0.000001 13.191485 0.322000 -3.304903 0.137971 3.644585 -21.134830 0.386561 2.094649 -20.910464 0.283134 1.800894 -17.867589 -0.000000 0.000000 0.000005 11.636425 -0.516597 -5.614201 0.923046 5.558211 -27.126880 0.268797 1.755841 -17.405885 0.241900 1.667672 -16.505536 -0.000000 0.000001 0.000002 -6.728793 11.756718 -2.058491 1.189527 15.344122 14.707069 13.162653 27.550866 58.780997 -0.000001 6.689791 0.000012 -20.174697 -0.523621 6.792851 -4.173391 -1.930927 1.503955 -1.664535 -0.169110 -4.216958 12.708045 -29.838200 -16.127694 -15.551977 -3.555858 -12.703320 -0.000004 0.000003 0.000004 -14.669399 -0.406445 2.854445 0.037626 1.264478 6.828363 0.213846 -1.396490 17.412922 0.046103 -0.654319 8.059114 0.000000 0.000000 0.000002 -14.409797 0.000004 -0.000000 -0.135906 -2.206391 14.998774 0.214478 -1.398413 17.437702 0.239782 -1.476583 18.447103 -0.000003 0.000000 0.000002 -13.191497 0.330680 -3.304047 0.031284 -3.078201 20.463776 0.308437 -1.668274 20.948521 0.225816 -1.434046 17.897112 0.000001 -0.000001 0.000000 -11.636406 -0.501497 -5.923331 0.748311 -4.885954 26.472189 0.214406 -1.398271 17.436028 0.192930 -1.327920 16.532288 0.000001 0.000003 -0.000000 -9.940992 -5.272416 -1.010900 1.138018 -10.352114 3.433824 6.837083 -9.724525 -3.275139 -3.639624 -1.667265 3.283744 -7.273478 0.000007 0.000005 -0.000001 0.000001 0.000000 9.618306 -5.272281 -1.010899 -10.971164 14.666183 10.591628 12.384810 2.005806 4.117813 1.276033 0.525271 -7.343959 -4.933144 0.000014 0.000006 0.000000 -0.000000 -0.000000 
0.453652 103.133324 0.396550 -3.578604 -5.298161 -2.976365 -0.038116 9.490500 -1.392097 5.579961 1.457669 2.293160 0.287346 0.290939 1.329330 0.267196 0.314548 1.324695 -0.056883 14.235783 -2.088086 5.889521 0.155640 0.338504 0.000003 3.280187 0.313308 -6.753613 2.019294 -0.138102 0.000030 25.653488 2.450522 -0.000000 -0.000000 -0.000000 6.728812 11.756598 -2.058486 0.932462 -13.426008 -12.462970 3.014970 -19.636010 -68.634454 0.000004 -4.606279 0.000010 -25.205418 -4.725767 -4.270140 4.173387 -1.926504 1.509004 -0.397313 1.923934 4.080516 11.740559 25.323510 17.687705 -13.845867 4.009439 9.267626 -0.000001 0.000000 0.000001 14.669394 -0.398775 2.855497 -0.018057 -1.339433 -7.735835 0.306755 1.872628 -18.605471 0.072908 0.922293 -9.038182 0.000000 0.000001 0.000003 14.409791 0.000014 -0.000004 -0.076511 2.680110 -15.872963 0.306621 1.872198 -18.600985 0.330275 1.941004 -19.311793 0.000000 -0.000000 -0.000002 13.191494 0.322011 -3.304904 0.242659 3.920119 -21.290422 0.431266 2.208049 -22.101468 0.312096 1.888358 -18.767714 0.000000 0.000000 0.000002 11.636422 -0.516594 -5.614204 1.217187 6.125902 -27.253474 0.306653 1.872253 -18.601530 0.268738 1.755662 -17.404007 0.000001 0.000000 0.000000 -6.728785 11.756683 -2.058489 1.135634 11.823380 14.430156 11.200856 27.848758 59.083998 -0.000009 7.856594 0.000006 -15.747780 5.035526 5.695008 -4.173395 -1.930955 1.503946 -1.566009 -0.105240 -3.674484 12.708037 -29.838207 -16.127680 -15.448001 -4.159621 -12.835920 0.000000 0.000000 -0.000003 -14.669386 -0.406435 2.854447 -0.050248 1.895940 7.880587 0.211117 -1.387683 17.299628 0.050677 -0.685971 8.451780 0.000003 0.000001 0.000003 -14.409796 0.000015 0.000001 -0.136425 -2.290503 15.989632 0.211727 -1.389643 17.324862 0.250000 -1.506885 18.839981 -0.000003 -0.000002 0.000000 -13.191482 0.330679 -3.304043 0.247957 -3.673021 21.425924 0.305176 -1.659685 20.835429 0.235746 -1.464448 18.289954 -0.000001 -0.000001 -0.000001 -11.636422 -0.501475 -5.923332 1.363120 -6.065739 27.420460 0.211667 -1.389478 17.322741 0.202135 -1.358537 16.925096 -0.000000 -0.000000 -0.000003 -9.940989 -5.272407 -1.010900 -6.936792 -10.917247 1.388649 21.235357 -7.712975 -3.606862 -10.047838 -3.561158 4.210001 -7.505424 0.000006 0.000001 -0.000001 -0.000002 -0.000000 9.618308 -5.272280 -1.010904 -16.713697 13.478859 11.048682 22.848238 2.352937 4.103112 -3.412525 0.853195 -7.372912 -4.978109 0.000003 0.000001 0.000001 -0.000002 -0.000000 
0.779341 101.254646 -0.639042 -3.084895 -5.634238 -2.124118 -0.038117 9.490485 -1.392101 8.664604 1.266240 1.742739 -0.558727 0.250077 1.061255 -0.576562 0.267630 1.054417 -0.056882 14.235785 -2.088090 6.130504 0.420866 0.247855 0.000003 3.280211 0.313305 -6.130934 2.857838 -0.297979 0.000029 25.653503 2.450521 -0.000000 0.000000 0.000000 6.728817 11.756560 -2.058488 0.839736 -9.009100 -12.439110 0.978755 -18.703281 -67.408401 -0.000005 -6.642943 -0.000004 -12.204834 -8.975391 -1.170327 4.173383 -1.926498 1.509005 0.314636 1.283429 2.073660 11.429096 25.070378 19.365717 -13.940972 5.250720 9.906821 -0.000004 0.000000 -0.000000 14.669397 -0.398783 2.855499 -0.111923 -2.314950 -8.213638 0.422871 2.187239 -21.882126 0.122038 1.190724 -11.702320 -0.000001 0.000001 0.000003 14.409793 0.000020 -0.000002 -0.073106 2.738527 -16.428876 0.419328 2.178391 -21.789123 0.416247 2.170672 -21.707828 -0.000003 0.000000 0.000003 13.191482 0.322008 -3.304902 0.531143 4.655201 -21.799525 0.561963 2.505656 -25.278646 0.395995 2.119157 -21.167082 -0.000001 0.000001 -0.000002 11.636399 -0.516605 -5.614200 2.019395 7.628280 -27.703502 0.419341 2.178418 -21.789342 0.346988 1.988041 -19.799431 0.000001 -0.000001 0.000001 -6.728784 11.756706 -2.058491 1.035121 8.062041 13.959155 5.475657 28.842485 61.013540 -0.000001 4.334411 0.000000 -8.174742 12.271493 3.022659 -4.173385 -1.930942 1.503953 -1.297666 0.066579 -2.238009 12.708048 -29.838197 -16.127694 -15.178234 -5.764120 -13.183328 -0.000001 -0.000001 0.000000 -14.669374 -0.406443 2.854445 -0.383836 3.466884 10.676077 0.208288 -1.378567 17.182273 0.063933 -0.769865 9.494512 -0.000003 0.000001 0.000002 -14.409783 0.000009 -0.000000 -0.130159 -2.515652 18.621140 0.208911 -1.380607 17.208725 0.278177 -1.587025 19.883401 0.000002 0.000002 -0.000000 -13.191475 0.330680 -3.304048 0.888647 -5.154729 24.000414 0.301776 -1.650785 20.718602 0.263152 -1.544842 19.333277 -0.000001 -0.000001 0.000002 -11.636397 -0.501477 -5.923337 3.114785 -8.962269 30.022438 0.208834 -1.380357 17.205383 0.227603 -1.439568 17.968296 0.000000 -0.000000 0.000001 -9.940991 -5.272409 -1.010902 -13.190190 -10.542606 -0.137188 30.637145 -5.894251 -4.062352 -13.737309 -5.475067 4.389992 -7.634884 -0.000007 0.000004 -0.000001 -0.000000 -0.000000 9.618307 -5.272295 -1.010905 -21.386929 11.921800 10.802199 30.265712 3.923423 4.085824 -6.192902 0.874180 -8.132686 -4.858045 -0.000003 -0.000001 -0.000000 -0.000001 -0.000000 
1.157505 99.129272 -2.290420 -1.663236 -6.149720 -0.895862 -0.038116 9.490512 -1.392100 12.052187 0.945920 0.802807 -1.148693 0.216267 0.804989 -1.164247 0.225678 0.797018 -0.056882 14.235833 -2.088091 6.273745 0.707195 0.141622 0.000002 3.280162 0.313297 -5.959361 3.793410 -0.590417 0.000030 25.653503 2.450522 -0.000000 0.000000 0.000000 6.728817 11.756612 -2.058491 0.767412 -4.955815 -12.029565 0.120185 -16.708359 -65.079367 0.000003 -12.709840 0.000014 5.143600 -11.357469 3.068313 4.173382 -1.926499 1.509008 1.332988 0.319944 -0.787373 10.997066 24.681737 21.772423 -14.090860 7.026478 10.847272 0.000001 0.000001 0.000005 14.669393 -0.398778 2.855500 -0.242971 -3.681799 -9.089622 0.621374 2.627661 -26.605315 0.214645 1.572799 -15.541561 0.000000 0.000002 0.000003 14.409799 0.000021 -0.000003 -0.065545 2.842612 -17.417520 0.611314 2.607462 -26.384724 0.556848 2.494781 -25.161141 0.000001 0.000003 0.000001 13.191490 0.321990 -3.304900 0.977516 5.710844 -22.729423 0.779032 2.920941 -29.861782 0.533725 2.444968 -24.624288 0.000002 0.000006 -0.000002 11.636394 -0.516612 -5.614201 3.237894 9.757236 -28.594587 0.611291 2.607438 -26.384399 0.476701 2.316645 -23.251738 -0.000001 0.000005 -0.000002 -6.728785 11.756731 -2.058492 0.890226 4.661443 13.207576 4.325171 26.783055 60.075127 0.000008 12.782343 -0.000010 2.995803 12.779830 -2.080568 -4.173403 -1.930933 1.503949 -0.896046 0.318881 -0.190526 12.708039 -29.838204 -16.127697 -14.807116 -8.066146 -13.669956 -0.000002 0.000001 0.000004 -14.669380 -0.406425 2.854445 -1.093298 5.476589 14.693789 0.213372 -1.394924 17.392732 0.085589 -0.889623 10.988882 0.000002 -0.000004 -0.000006 -14.409801 0.000008 -0.000004 -0.101098 -2.841705 22.392644 0.214080 -1.397108 17.420918 0.321080 -1.700925 21.378791 0.000003 -0.000003 -0.000002 -13.191484 0.330667 -3.304048 1.962927 -7.052960 27.738407 0.307887 -1.666862 20.929937 0.304954 -1.659148 20.828539 -0.000000 0.000000 -0.000001 -11.636401 -0.501484 -5.923336 5.922189 -12.564316 33.954479 0.213939 -1.396724 17.415849 0.266654 -1.554821 19.463343 -0.000000 0.000000 -0.000001 -9.940990 -5.272406 -1.010904 -20.417998 -9.302390 -1.451243 39.103963 -4.493879 -4.616542 -16.492202 -7.477263 4.213776 -8.006712 0.000003 -0.000001 -0.000001 -0.000001 -0.000000 9.618309 -5.272283 -1.010908 -26.852479 9.823114 9.770768 36.832253 6.270264 4.042927 -8.196199 1.141126 -8.894995 -5.157536 0.000001 -0.000005 0.000000 0.000001 -0.000000 
